<svg id="Layer_1" data-name="Layer 1" xmlns="http://www.w3.org/2000/svg" viewBox="0 0 980 862"><path d="M1319,971H601a25.31,25.31,0,0,0-3.79-.87c-56-4.3-105.3-44-121.12-98-2.78-9.48-4.1-19.4-6.09-29.12V391c1.85-9.1,3.13-18.36,5.64-27.27,14-49.76,62.75-99.85,134.63-99.43,33,.19,66,0,98.93.13,4,0,5.71-1.25,7.16-4.95,8.67-22.14,17.21-44.34,26.62-66.17,17.46-40.51,47.48-67.24,90.14-79,9.7-2.69,19.91-3.56,29.88-5.27h194c1.45.28,2.9.68,4.37.83,54.51,5.46,93.1,33.38,115.46,83.14,9.75,21.68,18,44.05,26.63,66.2,1.48,3.77,3.25,5.22,7.48,5.19q50-.3,100-.09c65.21.21,120.54,44.22,135.33,107.65,1.62,6.94,2.52,14.05,3.75,21.08V842c-.3,1.6-.74,3.19-.89,4.8C1444,902.55,1401.59,952.37,1347.37,966,1338.08,968.29,1328.46,969.35,1319,971ZM960.52,887.67q173.24,0,346.46,0a102.16,102.16,0,0,0,15.93-1.15c20.32-3.23,44.44-24.59,44.34-56.4-.45-141.65-.18-283.3-.26-425a64.75,64.75,0,0,0-1.52-14.84c-6.18-26-28.29-43-56-43q-76.5-.11-153,.11c-5.23,0-7.71-1.37-9.69-6.42-14.65-37.32-29.64-74.51-44.6-111.72-10-24.83-28.08-37.09-54.74-37.1q-87.5-.06-175,.05a70,70,0,0,0-14.87,1.46c-19.45,4.28-32.25,16.4-39.56,34.65q-22.81,57-45.51,114c-1.44,3.63-3.11,4.92-7.15,4.91q-76.74-.25-153.48,0A70.92,70.92,0,0,0,591.27,350C567.5,357.46,553,378.67,553,404.87q0,171,0,342c0,27.66-.34,55.33.22,83,.16,8.13,1.46,16.85,4.73,24.2,10.27,23.1,29.13,33.64,54.16,33.64Z" transform="translate(-470 -109)"/><path d="M959.78,833.87c-130.29-.33-236.08-106.59-235.72-236.75.36-129.22,106.74-235,236.15-234.78,130.61.2,236.32,106.43,235.83,237C1195.56,728.74,1089.31,834.21,959.78,833.87ZM960,445.25c-84.39.14-153,68.76-153,152.94S875.93,751,960.22,750.92s153-68.65,152.89-153S1044.39,445.11,960,445.25Z" transform="translate(-470 -109)"/></svg>