<?xml version="1.0" encoding="utf-8"?>
<!-- Generator: Adobe Illustrator 24.3.0, SVG Export Plug-In . SVG Version: 6.00 Build 0)  -->
<svg version="1.1" id="Layer_1" xmlns="http://www.w3.org/2000/svg" xmlns:xlink="http://www.w3.org/1999/xlink" x="0px" y="0px"
	 viewBox="0 0 1000 1000" style="enable-background:new 0 0 1000 1000;" xml:space="preserve">
<style type="text/css">
	.st0{fill:#57595D;stroke:#000000;stroke-miterlimit:10;}
	.st1{fill:#FFFFFF;}
</style>
<rect class="st0" width="1000" height="1000"/>
<g>
	<path class="st1" d="M222.2,174.2h38.6v653.1h-38.6V174.2z"/>
	<path class="st1" d="M741.5,174.2h38.6v653.1h-38.6V174.2z"/>
	<path class="st1" d="M306.1,127.7h38.6v689.4h-38.6V127.7z"/>
	<path class="st1" d="M655.4,127.7h38.5v689.4h-38.6L655.4,127.7L655.4,127.7z"/>
	<path class="st1" d="M306.1,106.1h387.8v38.6H306.1V106.1z"/>
	<path class="st1" d="M227.9,174.2h83.9v38.6h-83.9V174.2z"/>
	<path class="st1" d="M682.5,174.2h83.9v38.6h-83.9V174.2z"/>
	<path class="st1" d="M383.2,193.5h51.4v85h-51.4V193.5L383.2,193.5z"/>
	<path class="st1" d="M383.2,331.1h51.4v85h-51.4V331.1z"/>
	<path class="st1" d="M470.8,331.1h51.4v85h-51.4L470.8,331.1L470.8,331.1z"/>
	<path class="st1" d="M564.6,331.1H616v85h-51.4V331.1z"/>
	<path class="st1" d="M564.6,472.4H616v85h-51.4V472.4z"/>
	<path class="st1" d="M474.3,472.4h51.4v85h-51.4V472.4z"/>
	<path class="st1" d="M383.2,472.4h51.4v85h-51.4V472.4z"/>
	<path class="st1" d="M383.2,611.5h51.4v85h-51.4V611.5z"/>
	<path class="st1" d="M474.3,611.5h51.4v85h-51.4V611.5z"/>
	<path class="st1" d="M564.6,611.5H616v85h-51.4V611.5z"/>
	<path class="st1" d="M470.8,193.5h51.4v85h-51.4L470.8,193.5L470.8,193.5z"/>
	<path class="st1" d="M564.6,193.5H616v85h-51.4V193.5L564.6,193.5z"/>
	<path class="st1" d="M931.8,855.5c0,21.2-18.9,38.3-42.3,38.3H110.5c-23.4,0-42.3-17.2-42.3-38.3l0,0c0-21.2,18.9-38.3,42.3-38.3
		h779.1C912.9,817.2,931.8,834.3,931.8,855.5L931.8,855.5z"/>
	<path class="st1" d="M133.5,722.4h32V822h-32V722.4z"/>
	<path class="st1" d="M133.5,712.1h32v105h-32V712.1z"/>
	<path class="st1" d="M149.5,643c-24.3,0-43.9,19.7-43.9,43.9s19.6,44,43.9,44s43.9-19.7,43.9-43.9C193.4,662.8,173.7,643,149.5,643
		z M149.5,707.9c-11.5,0-21-9.4-21-21c0-11.5,9.4-21,21-21c11.5,0,21,9.4,21,21C170.4,698.6,161.1,707.9,149.5,707.9z"/>
	<path class="st1" d="M833.7,713h32v105h-32V713z"/>
	<path class="st1" d="M849.6,643.9c-24.3,0-43.9,19.7-43.9,43.9c0,24.3,19.7,43.9,43.9,43.9c24.3,0,43.9-19.7,43.9-43.9
		C893.6,663.6,873.9,643.9,849.6,643.9z M849.6,708.8c-11.5,0-21-9.4-21-21c0-11.5,9.4-21,21-21c11.5,0,21,9.4,21,21
		C870.6,699.3,861.2,708.8,849.6,708.8z"/>
</g>
</svg>
